# xmcd CD database file
#
# Track frame offsets:
#	150
#	25193
#	57003
#	78531
#	107904
#	133159
#	154515
#	177576
#	198292
#
# Disc length: 2927 seconds
#
# Revision: 0
# Processed by: cddbd v1.5.2PL0 Copyright (c) Steve Scherf et al.
# Submitted via: CDex 1.51
#
DISCID=730b6d09
DTITLE=Philippe Duchemin Trio - For Oscar
DYEAR=2004
DGENRE=Jazz
TTITLE0=Take Bach
TTITLE1=Oscar
TTITLE2=Bluette
TTITLE3=Ballade en Pologne
TTITLE4=Wes side
TTITLE5=Rue de Maubeuge
TTITLE6=Fingers in the night
TTITLE7=Anatolia
TTITLE8=L'impossible
EXTD=YEAR: 2004
EXTT0=
EXTT1=
EXTT2=
EXTT3=
EXTT4=
EXTT5=
EXTT6=
EXTT7=
EXTT8=
PLAYORDER=
